<svg xmlns="http://www.w3.org/2000/svg" viewBox="0 0 300 150" width="300" height="150">
	<style>
		tspan { white-space:pre }
	</style>
	<path id="Coderstape  Laravel + Vue Full s" fill="#000000" d="M64.41 22.33Q64.55 24.61 64.55 27.09Q64.55 29.58 64.55 32.1Q64.55 34.59 64.55 37Q64.58 39.38 64.76 41.52Q64.79 41.94 65.53 42.11Q66.26 42.25 67.17 42.28Q68.08 42.28 68.89 42.22Q69.69 42.15 69.87 42.15Q70.81 42.01 71.44 41.73Q72.07 41.41 72.53 41.2Q72.98 40.99 73.33 40.99Q73.72 40.95 74.14 41.38Q74.52 41.66 74.56 41.97Q74.63 42.28 74.45 42.6Q74.31 42.91 74 43.2Q73.72 43.44 73.4 43.65Q72.35 44.28 71.06 44.56Q69.8 44.84 68.47 44.91Q67.17 44.95 65.91 44.84Q64.65 44.73 63.57 44.59Q61.82 44.31 60.24 43.41Q58.7 42.46 57.48 41.16Q56.25 39.87 55.41 38.3Q54.61 36.72 54.33 35.11Q54.08 33.92 54.12 32.45Q54.19 30.98 54.4 29.54Q54.64 28.11 55.03 26.85Q55.41 25.55 55.8 24.75Q56.46 23.42 57.62 22.37Q58.77 21.32 60.24 20.58Q61.71 19.85 63.39 19.46Q65.07 19.08 66.82 19.08Q67.63 19.08 68.4 19.15Q69.17 19.18 69.97 19.39Q70.81 19.57 71.69 19.92Q72.56 20.27 73.58 20.86Q73.79 21 74.1 21.28Q74.42 21.53 74.66 21.88Q74.91 22.23 74.94 22.61Q75.01 23 74.77 23.35Q74.49 23.73 74.17 23.77Q73.86 23.8 73.51 23.66Q73.19 23.49 72.81 23.24Q72.46 22.96 72.07 22.72Q71.27 22.23 70.29 21.91Q69.34 21.56 68.26 21.56Q68.15 21.56 67.52 21.6Q66.89 21.6 66.19 21.7Q65.53 21.77 64.97 21.95Q64.41 22.09 64.41 22.33ZM85.37 22.54Q87.89 22.4 89.78 22.72Q91.67 23 93.04 23.84Q94.44 24.64 95.38 25.97Q96.33 27.3 96.92 29.23Q97.17 30.03 97.27 30.73Q97.41 31.4 97.41 32.2Q97.45 33.01 97.38 34.06Q97.34 35.08 97.2 36.55Q96.96 38.44 95.91 40.05Q94.86 41.66 93.25 42.77Q91.64 43.86 89.61 44.35Q87.58 44.84 85.37 44.49Q83.17 44.17 81.31 43.02Q79.49 41.87 78.23 40.05Q77.46 39.03 77.04 37.63Q76.62 36.2 76.48 34.69Q76.38 33.15 76.55 31.64Q76.76 30.1 77.25 28.84Q77.78 27.69 78.62 26.6Q79.46 25.52 80.51 24.68Q81.56 23.8 82.78 23.24Q84.04 22.65 85.37 22.54ZM92.2 26.04Q91.67 25.59 90.73 25.2Q89.82 24.82 88.91 24.68Q88 24.5 87.3 24.64Q86.6 24.75 86.46 25.31Q86.32 26.11 86.32 27.3Q86.32 28.46 86.35 29.79Q86.42 31.12 86.46 32.55Q86.53 33.95 86.49 35.22Q86.46 35.91 86.42 36.89Q86.39 37.88 86.49 38.82Q86.63 39.73 86.98 40.47Q87.33 41.16 88.1 41.3Q89.82 41.66 91.11 41.02Q92.44 40.36 93.32 39.06Q94.19 37.73 94.58 35.98Q95 34.23 94.89 32.45Q94.79 30.63 94.12 28.95Q93.46 27.23 92.2 26.04ZM99.41 42.32Q99.2 40.39 99.09 38.64Q99.02 36.86 98.99 35.04Q98.95 33.22 98.92 31.23Q98.92 29.23 98.85 26.81Q98.85 26.43 98.78 25.83Q98.74 25.24 98.71 24.68Q98.71 24.08 98.74 23.63Q98.81 23.14 99.02 22.93Q99.3 22.58 99.72 22.4Q100.18 22.23 100.67 22.16Q101.19 22.09 101.68 22.09Q102.17 22.05 102.59 21.98Q104.38 21.84 105.99 21.95Q107.63 22.05 108.96 22.33Q110.33 22.61 111.38 23.07Q112.43 23.49 113.09 24.01Q113.9 24.68 114.49 25.63Q115.09 26.53 115.51 27.62Q115.93 28.67 116.17 29.86Q116.45 31.02 116.63 32.17Q116.84 33.74 116.8 35.46Q116.77 37.17 116.14 38.96Q115.79 39.94 115.09 40.81Q114.39 41.69 113.48 42.35Q112.6 43.02 111.62 43.44Q110.64 43.86 109.8 43.93Q108.3 44.03 107.07 44.07Q105.88 44.07 104.55 44.07Q103.96 44.07 103.12 44.03Q102.31 44 101.51 43.86Q100.74 43.69 100.14 43.34Q99.55 42.98 99.41 42.32ZM112.95 40.12Q113.97 39.24 114.35 37.7Q114.74 36.16 114.6 34.41Q114.49 32.63 113.97 30.84Q113.44 29.02 112.64 27.62Q111.83 26.18 110.78 25.34Q109.77 24.5 108.65 24.68Q108.51 24.75 108.44 25.13Q108.37 25.52 108.33 26.08Q108.3 26.6 108.3 27.2Q108.3 27.76 108.3 28.21Q108.3 29.89 108.33 31.75Q108.4 33.57 108.47 35.39Q108.54 37.21 108.58 38.89Q108.65 40.57 108.65 41.9Q109.52 41.94 110.12 41.8Q110.71 41.66 111.17 41.41Q111.66 41.13 112.04 40.81Q112.46 40.47 112.95 40.12ZM131.26 24.4L127.44 24.4Q127.3 25.17 127.27 26.39Q127.27 27.58 127.3 28.91Q127.34 30.24 127.37 31.57Q127.44 32.87 127.44 33.85Q127.86 33.99 128.21 34.02Q128.56 34.02 128.91 34.02Q129.26 33.99 129.61 33.95Q130 33.92 130.42 33.92Q131.19 33.95 131.68 33.99Q132.2 33.99 132.52 34.13Q132.83 34.23 132.97 34.55Q133.11 34.83 133.11 35.39Q133.11 35.81 132.41 35.95Q131.75 36.09 130.84 36.13Q129.93 36.13 128.95 36.13Q128 36.09 127.44 36.2Q127.3 36.79 127.3 37.42Q127.3 38.02 127.3 38.64Q127.34 39.27 127.3 39.94Q127.3 40.6 127.2 41.27Q127.55 41.41 128.21 41.41Q128.91 41.41 129.72 41.38Q130.56 41.34 131.4 41.34Q132.27 41.3 132.97 41.41Q133.67 41.48 134.09 41.73Q134.55 41.97 134.55 42.49Q134.55 43.02 134.13 43.3Q133.74 43.55 133.04 43.65Q132.34 43.76 131.4 43.76Q130.49 43.72 129.47 43.72Q128.04 43.58 126.15 43.72Q124.26 43.83 122.54 43.86Q120.83 43.86 119.6 43.58Q118.41 43.27 118.34 42.25Q118.13 38.4 118.17 34.45Q118.2 30.49 118.2 26.46Q118.2 26.01 118.2 25.48Q118.2 24.92 118.24 24.43Q118.27 23.91 118.31 23.52Q118.38 23.1 118.48 22.89Q118.73 22.68 119.5 22.58Q120.27 22.44 121.18 22.4Q122.12 22.33 123 22.33Q123.87 22.3 124.4 22.3L129.47 22.3Q130.14 22.3 130.98 22.23Q131.82 22.16 132.55 22.23Q133.29 22.26 133.78 22.51Q134.27 22.75 134.27 23.42Q134.27 23.87 133.92 24.08Q133.6 24.29 133.11 24.36Q132.66 24.43 132.13 24.43Q131.61 24.4 131.26 24.4ZM145.99 36.69Q146.55 37.45 147.46 38.3Q148.37 39.13 149.25 39.91Q150.12 40.67 150.75 41.3Q151.38 41.94 151.35 42.28Q151.24 43.09 150.93 43.37Q150.61 43.65 150.12 43.58Q149.67 43.48 149.07 43.05Q148.48 42.63 147.78 42.01Q146.83 41.09 145.82 40.12Q144.8 39.1 143.89 38.44Q143.79 38.96 143.86 39.7Q143.93 40.43 143.96 41.16Q144 41.87 143.89 42.42Q143.82 42.98 143.37 43.16Q143.05 43.51 142.18 43.69Q141.34 43.86 140.32 43.9Q139.34 43.9 138.36 43.79Q137.42 43.69 136.86 43.44Q136.19 43.23 136.09 42.6Q135.98 41.97 135.98 41.09Q136.05 39.84 135.98 38.05Q135.95 36.23 135.84 34.27Q135.77 32.27 135.74 30.28Q135.7 28.25 135.77 26.6Q135.84 24.96 136.09 23.84Q136.33 22.72 136.86 22.47Q137.52 22.05 138.85 21.91Q140.22 21.77 141.72 21.84Q143.26 21.88 144.66 22.09Q146.1 22.26 146.87 22.47Q147.99 22.82 148.83 23.52Q149.7 24.19 150.26 25.06Q150.86 25.9 151.17 26.88Q151.49 27.83 151.59 28.7Q151.59 29.37 151.56 30.07Q151.56 30.77 151.45 31.43Q151.38 32.1 151.21 32.7Q151.03 33.25 150.68 33.67Q149.84 34.83 148.65 35.42Q147.5 36.02 145.99 36.69ZM143.61 34.86Q144.49 35.11 145.54 34.83Q146.59 34.55 147.46 33.99Q148.37 33.43 148.97 32.66Q149.56 31.89 149.56 31.12Q149.67 29.34 149.21 27.97Q148.79 26.57 147.99 25.63Q147.18 24.68 146.06 24.22Q144.98 23.73 143.75 23.73Q143.75 25.06 143.72 26.64Q143.72 28.21 143.68 29.79Q143.65 31.33 143.61 32.7Q143.61 34.02 143.61 34.86ZM165.8 23.17Q166.26 23.35 166.68 23.66Q167.1 23.94 167.34 24.29Q167.62 24.61 167.69 24.96Q167.8 25.27 167.62 25.48Q167.2 25.97 166.57 25.87Q165.98 25.73 165.49 25.48Q165.38 25.48 164.89 25.24Q164.4 24.96 163.7 24.75Q163.04 24.5 162.27 24.47Q161.53 24.43 160.9 24.89Q160.24 25.34 159.99 26.01Q159.75 26.67 159.78 27.34Q159.85 28 160.13 28.6Q160.45 29.2 160.9 29.51Q162.3 30.84 163.46 31.71Q164.61 32.59 165.45 33.33Q166.33 34.06 166.85 34.86Q167.41 35.67 167.62 36.89Q168.04 38.99 167.38 40.43Q166.75 41.83 165.45 42.63Q164.16 43.44 162.48 43.72Q160.8 44 159.19 43.86Q157.58 43.69 156.25 43.16Q154.95 42.6 154.39 41.8Q154.36 41.73 154.15 41.48Q153.97 41.2 153.8 40.85Q153.66 40.5 153.59 40.15Q153.55 39.77 153.83 39.48Q154.18 39.13 154.46 39.1Q154.74 39.06 154.95 39.2Q155.2 39.34 155.37 39.63Q155.55 39.87 155.65 40.12Q156.07 40.74 156.98 41.13Q157.89 41.52 158.84 41.48Q159.82 41.45 160.59 40.92Q161.39 40.39 161.53 39.2Q161.53 37.88 160.94 37.17Q160.34 36.48 159.47 36.02Q158.63 35.53 157.65 35.11Q156.7 34.69 155.93 33.95Q154.95 33.19 154.25 32.48Q153.55 31.75 153.13 30.88Q152.71 30 152.57 28.88Q152.47 27.72 152.68 26.11Q152.82 24.78 154.15 23.8Q155.48 22.79 157.4 22.33Q159.33 21.88 161.57 22.05Q163.84 22.19 165.8 23.17ZM182.25 24.75Q182.18 24.85 182.15 25.41Q182.11 25.94 182.11 26.78Q182.11 27.62 182.11 28.63Q182.15 29.65 182.18 30.7Q182.22 31.71 182.22 32.7Q182.25 33.64 182.25 34.34L182.25 41.9Q182.25 42.35 182.18 42.91Q182.11 43.48 181.69 43.65Q181.52 43.72 180.99 43.76Q180.5 43.79 179.8 43.83Q179.14 43.83 178.37 43.83Q177.6 43.83 176.9 43.83Q176.23 43.79 175.74 43.79Q175.25 43.76 175.11 43.76Q174.41 43.76 174.03 43.58Q173.64 43.41 173.64 42.6L173.64 37.07L173.64 24.92Q173.64 24.78 173.12 24.75Q172.63 24.71 171.96 24.75Q171.33 24.75 170.74 24.78Q170.18 24.78 170.07 24.75Q169.55 24.71 169.27 24.64Q169.02 24.54 168.92 24.36Q168.85 24.19 168.85 23.87Q168.88 23.52 168.88 23Q169.09 22.68 169.37 22.58Q169.65 22.44 169.93 22.44Q170.25 22.4 170.56 22.44Q170.88 22.47 171.19 22.47L185.44 22.47Q186 22.47 186.31 22.51Q186.66 22.51 186.84 22.61Q187.05 22.72 187.12 22.96Q187.19 23.21 187.19 23.63Q187.19 24.01 186.98 24.22Q186.8 24.43 186.52 24.57Q186.28 24.68 185.96 24.71Q185.68 24.75 185.44 24.75Q184.6 24.75 183.76 24.64Q182.92 24.54 182.25 24.75ZM202.94 38.96Q202.94 39.48 202.94 40.15Q202.94 40.78 202.9 41.41Q202.9 42.04 202.8 42.63Q202.73 43.2 202.52 43.62Q202.38 43.9 201.4 44.07Q200.42 44.21 199.26 44.21Q198.14 44.21 197.16 44.07Q196.22 43.9 196.08 43.55Q195.87 42.91 195.83 41.9Q195.83 40.85 195.83 39.73Q195.87 38.58 195.87 37.52Q195.9 36.48 195.8 35.81Q194.99 35.7 194.05 35.7Q193.14 35.67 192.16 35.67Q191.18 35.67 190.2 35.67Q189.22 35.63 188.31 35.53Q188.1 36.51 188.1 37.59Q188.1 38.64 188.13 39.7Q188.2 40.74 188.2 41.69Q188.24 42.63 188.13 43.3Q188.06 43.76 187.71 43.93Q187.4 44.07 187.01 44.03Q186.66 43.97 186.38 43.69Q186.1 43.41 186.1 42.98Q186.1 41.8 186.07 40.64Q186.03 39.48 186.1 37.73Q186.17 35.74 186.21 33.81Q186.28 31.85 186.52 30.07Q186.77 28.28 187.33 26.78Q187.89 25.24 188.97 24.08Q189.67 23.28 190.79 22.65Q191.91 22.02 193.49 22.02Q195.69 22.02 197.27 22.72Q198.88 23.42 199.93 24.64Q201.01 25.87 201.64 27.51Q202.27 29.13 202.55 31.02Q202.87 32.91 202.94 34.94Q203.01 36.96 202.94 38.96ZM188.34 33.57L196.15 33.57Q196.15 31.16 195.87 29.47Q195.59 27.79 195.03 26.74Q194.5 25.69 193.73 25.24Q192.96 24.75 191.98 24.75Q191.32 24.75 190.79 25.24Q190.27 25.73 189.85 26.53Q189.46 27.34 189.18 28.32Q188.9 29.3 188.69 30.28Q188.52 31.26 188.41 32.13Q188.34 33.01 188.34 33.57ZM213.05 36.37Q213.05 37 213.05 37.88Q213.09 38.72 213.09 39.63Q213.09 40.53 213.05 41.45Q213.05 42.32 213.02 42.98Q213.05 43.34 212.35 43.58Q211.65 43.83 210.6 43.97Q209.59 44.07 208.36 44.07Q207.14 44.07 206.09 43.9Q205.07 43.72 204.41 43.41Q203.78 43.05 203.85 42.53Q203.74 40.36 203.74 38.12Q203.74 35.88 203.78 33.6Q203.81 31.29 203.81 28.98Q203.85 26.64 203.74 24.33Q203.74 23.73 203.92 23.31Q204.09 22.86 204.37 22.58Q204.65 22.26 204.93 22.12Q205.25 21.98 205.46 21.98Q208.85 21.63 211.65 21.81Q214.45 21.98 216.45 22.89Q218.44 23.8 219.53 25.59Q220.61 27.34 220.65 30.17Q220.65 31.61 220.02 32.73Q219.42 33.81 218.37 34.59Q217.32 35.35 215.92 35.81Q214.56 36.23 213.05 36.37ZM218.62 29.3Q218.62 28.11 218.16 27.2Q217.71 26.25 216.94 25.63Q216.17 24.99 215.15 24.68Q214.14 24.33 213.05 24.33Q212.95 24.22 212.91 24.89Q212.91 25.55 212.91 26.46Q212.95 27.34 212.98 28.18Q213.05 29.02 213.05 29.3Q213.12 30.7 213.09 31.85Q213.05 33.01 213.05 34.27Q215.71 34.27 217.15 33.11Q218.62 31.96 218.62 29.3ZM234.86 24.4L231.04 24.4Q230.9 25.17 230.87 26.39Q230.87 27.58 230.9 28.91Q230.94 30.24 230.97 31.57Q231.04 32.87 231.04 33.85Q231.46 33.99 231.81 34.02Q232.16 34.02 232.51 34.02Q232.86 33.99 233.21 33.95Q233.6 33.92 234.02 33.92Q234.79 33.95 235.28 33.99Q235.8 33.99 236.12 34.13Q236.43 34.23 236.57 34.55Q236.71 34.83 236.71 35.39Q236.71 35.81 236.01 35.95Q235.35 36.09 234.44 36.13Q233.53 36.13 232.55 36.13Q231.6 36.09 231.04 36.2Q230.9 36.79 230.9 37.42Q230.9 38.02 230.9 38.64Q230.94 39.27 230.9 39.94Q230.9 40.6 230.8 41.27Q231.15 41.41 231.81 41.41Q232.51 41.41 233.32 41.38Q234.16 41.34 235 41.34Q235.87 41.3 236.57 41.41Q237.27 41.48 237.69 41.73Q238.15 41.97 238.15 42.49Q238.15 43.02 237.73 43.3Q237.34 43.55 236.64 43.65Q235.94 43.76 235 43.76Q234.09 43.72 233.07 43.72Q231.64 43.58 229.75 43.72Q227.86 43.83 226.14 43.86Q224.43 43.86 223.2 43.58Q222.01 43.27 221.94 42.25Q221.73 38.4 221.77 34.45Q221.8 30.49 221.8 26.46Q221.8 26.01 221.8 25.48Q221.8 24.92 221.84 24.43Q221.87 23.91 221.91 23.52Q221.98 23.1 222.08 22.89Q222.33 22.68 223.1 22.58Q223.87 22.44 224.78 22.4Q225.72 22.33 226.6 22.33Q227.47 22.3 228 22.3L233.07 22.3Q233.74 22.3 234.58 22.23Q235.42 22.16 236.15 22.23Q236.89 22.26 237.38 22.51Q237.87 22.75 237.87 23.42Q237.87 23.87 237.52 24.08Q237.2 24.29 236.71 24.36Q236.26 24.43 235.73 24.43Q235.21 24.4 234.86 24.4ZM55.03 63.32Q55.1 66.58 55.1 68.85Q55.13 71.13 55.1 72.81Q55.1 74.48 55.06 75.71Q55.03 76.94 54.99 78.09Q54.99 79.21 54.99 80.47Q55.03 81.73 55.1 83.41L58.35 83.48Q58.95 83.48 59.3 83.66Q59.65 83.83 59.79 84.11Q59.96 84.35 59.96 84.67Q59.96 84.98 59.86 85.27Q59.75 85.58 59.16 85.72Q58.56 85.86 57.76 85.93Q56.99 85.97 56.18 85.97Q55.38 85.93 54.85 85.93Q52.58 85.86 50.97 85.93Q49.39 85.97 48.31 85.97Q47.26 85.97 46.63 85.86Q46.03 85.75 45.72 85.37Q45.4 84.98 45.3 84.28Q45.23 83.55 45.23 82.33Q45.23 81.52 45.23 79.98Q45.23 78.44 45.23 76.59Q45.23 74.69 45.19 72.66Q45.19 70.63 45.16 68.81Q45.16 66.96 45.09 65.53Q45.05 64.09 45.02 63.39Q44.98 62.86 45.05 62.55Q45.16 62.2 45.33 62.02Q45.51 61.81 45.79 61.74Q46.07 61.64 46.38 61.53Q47.12 61.33 48.1 61.29Q49.08 61.25 50.13 61.33Q51.18 61.36 52.19 61.46Q53.21 61.57 54.01 61.71Q54.75 61.85 54.89 62.34Q55.03 62.83 55.03 63.32ZM78.69 80.96Q78.69 81.48 78.69 82.15Q78.69 82.78 78.65 83.41Q78.65 84.04 78.55 84.63Q78.48 85.19 78.27 85.62Q78.13 85.9 77.15 86.07Q76.17 86.21 75.01 86.21Q73.89 86.21 72.91 86.07Q71.97 85.9 71.83 85.55Q71.62 84.91 71.58 83.9Q71.58 82.85 71.58 81.73Q71.62 80.58 71.62 79.53Q71.65 78.47 71.55 77.81Q70.74 77.7 69.8 77.7Q68.89 77.67 67.91 77.67Q66.93 77.67 65.95 77.67Q64.97 77.63 64.06 77.53Q63.85 78.51 63.85 79.59Q63.85 80.64 63.88 81.69Q63.95 82.75 63.95 83.69Q63.99 84.63 63.88 85.3Q63.81 85.75 63.46 85.93Q63.15 86.07 62.76 86.03Q62.41 85.97 62.13 85.69Q61.85 85.41 61.85 84.98Q61.85 83.8 61.82 82.64Q61.78 81.48 61.85 79.73Q61.92 77.74 61.96 75.81Q62.03 73.85 62.27 72.07Q62.52 70.28 63.08 68.78Q63.64 67.24 64.72 66.08Q65.42 65.28 66.54 64.65Q67.66 64.02 69.24 64.02Q71.44 64.02 73.02 64.72Q74.63 65.42 75.68 66.64Q76.76 67.87 77.39 69.52Q78.02 71.13 78.3 73.02Q78.62 74.91 78.69 76.94Q78.76 78.97 78.69 80.96ZM64.09 75.57L71.9 75.57Q71.9 73.16 71.62 71.47Q71.34 69.8 70.78 68.75Q70.25 67.69 69.48 67.24Q68.71 66.75 67.73 66.75Q67.07 66.75 66.54 67.24Q66.02 67.73 65.6 68.53Q65.21 69.34 64.93 70.32Q64.65 71.3 64.44 72.28Q64.27 73.26 64.16 74.13Q64.09 75.01 64.09 75.57ZM91.11 78.69Q91.67 79.45 92.58 80.3Q93.49 81.13 94.37 81.91Q95.24 82.67 95.87 83.31Q96.5 83.94 96.47 84.28Q96.36 85.09 96.05 85.37Q95.73 85.65 95.24 85.58Q94.79 85.47 94.19 85.06Q93.6 84.63 92.9 84Q91.95 83.09 90.94 82.12Q89.92 81.1 89.01 80.44Q88.91 80.96 88.98 81.69Q89.05 82.43 89.08 83.16Q89.12 83.87 89.01 84.42Q88.94 84.98 88.49 85.16Q88.17 85.51 87.3 85.69Q86.46 85.86 85.44 85.9Q84.46 85.9 83.48 85.79Q82.54 85.69 81.98 85.44Q81.31 85.23 81.21 84.6Q81.1 83.97 81.1 83.09Q81.17 81.84 81.1 80.05Q81.07 78.23 80.96 76.27Q80.89 74.28 80.86 72.28Q80.82 70.25 80.89 68.6Q80.96 66.96 81.21 65.84Q81.45 64.72 81.98 64.47Q82.64 64.05 83.97 63.91Q85.34 63.77 86.84 63.84Q88.38 63.88 89.78 64.09Q91.22 64.27 91.99 64.47Q93.11 64.83 93.95 65.53Q94.82 66.19 95.38 67.06Q95.98 67.91 96.29 68.88Q96.61 69.83 96.71 70.7Q96.71 71.37 96.68 72.07Q96.68 72.77 96.57 73.44Q96.5 74.1 96.33 74.69Q96.15 75.25 95.8 75.67Q94.96 76.83 93.77 77.42Q92.62 78.02 91.11 78.69ZM88.73 76.86Q89.61 77.11 90.66 76.83Q91.71 76.55 92.58 75.99Q93.49 75.43 94.09 74.66Q94.68 73.89 94.68 73.12Q94.79 71.34 94.33 69.97Q93.91 68.57 93.11 67.63Q92.3 66.68 91.18 66.22Q90.1 65.73 88.87 65.73Q88.87 67.06 88.84 68.64Q88.84 70.22 88.8 71.79Q88.77 73.33 88.73 74.69Q88.73 76.03 88.73 76.86ZM114.77 80.96Q114.77 81.48 114.77 82.15Q114.77 82.78 114.74 83.41Q114.74 84.04 114.63 84.63Q114.56 85.19 114.35 85.62Q114.21 85.9 113.23 86.07Q112.25 86.21 111.1 86.21Q109.98 86.21 109 86.07Q108.05 85.9 107.91 85.55Q107.7 84.91 107.67 83.9Q107.67 82.85 107.67 81.73Q107.7 80.58 107.7 79.53Q107.74 78.47 107.63 77.81Q106.83 77.7 105.88 77.7Q104.97 77.67 103.99 77.67Q103.01 77.67 102.03 77.67Q101.05 77.63 100.14 77.53Q99.93 78.51 99.93 79.59Q99.93 80.64 99.97 81.69Q100.04 82.75 100.04 83.69Q100.07 84.63 99.97 85.3Q99.9 85.75 99.55 85.93Q99.23 86.07 98.85 86.03Q98.5 85.97 98.22 85.69Q97.94 85.41 97.94 84.98Q97.94 83.8 97.9 82.64Q97.87 81.48 97.94 79.73Q98.01 77.74 98.04 75.81Q98.11 73.85 98.36 72.07Q98.6 70.28 99.16 68.78Q99.72 67.24 100.81 66.08Q101.51 65.28 102.63 64.65Q103.75 64.02 105.32 64.02Q107.53 64.02 109.1 64.72Q110.71 65.42 111.76 66.64Q112.85 67.87 113.48 69.52Q114.11 71.13 114.39 73.02Q114.7 74.91 114.77 76.94Q114.84 78.97 114.77 80.96ZM100.18 75.57L107.98 75.57Q107.98 73.16 107.7 71.47Q107.42 69.8 106.86 68.75Q106.34 67.69 105.57 67.24Q104.8 66.75 103.82 66.75Q103.15 66.75 102.63 67.24Q102.1 67.73 101.68 68.53Q101.3 69.34 101.02 70.32Q100.74 71.3 100.53 72.28Q100.35 73.26 100.25 74.13Q100.18 75.01 100.18 75.57ZM125.9 79.56Q126.67 78.3 127.34 76.72Q128 75.11 128.7 73.33Q129.26 71.72 129.86 70.08Q130.45 68.39 130.8 66.92Q130.91 66.58 130.98 66.08Q131.05 65.59 131.26 65.25Q131.47 64.86 131.92 64.75Q132.38 64.61 133.25 64.97Q133.46 65.03 133.53 65.31Q133.6 65.59 133.57 65.91Q133.57 66.22 133.5 66.54Q133.46 66.82 133.46 66.92Q133.25 67.69 132.76 69.27Q132.31 70.84 131.61 72.81Q130.94 74.73 130.1 76.86Q129.26 78.97 128.32 80.78Q127.41 82.6 126.39 83.94Q125.41 85.27 124.43 85.65Q123.63 86.1 122.72 85.86Q121.84 85.58 121.04 84.91Q120.23 84.25 119.6 83.41Q118.97 82.57 118.73 81.87Q118.17 80.68 117.82 79.49Q117.47 78.3 117.15 77.08Q116.87 75.85 116.59 74.56Q116.31 73.26 115.89 71.86Q115.79 71.41 115.47 70.6Q115.19 69.8 114.95 68.88Q114.7 67.97 114.6 67.06Q114.49 66.12 114.74 65.45Q114.91 65.03 115.47 64.79Q116.07 64.55 116.8 64.44Q117.54 64.33 118.27 64.33Q119.01 64.3 119.53 64.3Q119.78 64.3 120.27 64.3Q120.76 64.27 121.28 64.33Q121.84 64.37 122.33 64.55Q122.82 64.72 123.03 65.14Q123.56 66.78 123.87 68.6Q124.19 70.39 124.43 72.28Q124.71 74.13 125.03 75.99Q125.34 77.84 125.9 79.56ZM147.6 66.4L143.79 66.4Q143.65 67.17 143.61 68.39Q143.61 69.58 143.65 70.91Q143.68 72.25 143.72 73.58Q143.79 74.87 143.79 75.85Q144.21 75.99 144.56 76.03Q144.91 76.03 145.26 76.03Q145.61 75.99 145.96 75.95Q146.34 75.92 146.76 75.92Q147.53 75.95 148.02 75.99Q148.55 75.99 148.86 76.13Q149.18 76.23 149.32 76.55Q149.46 76.83 149.46 77.39Q149.46 77.81 148.76 77.95Q148.09 78.09 147.18 78.13Q146.27 78.13 145.29 78.13Q144.35 78.09 143.79 78.19Q143.65 78.79 143.65 79.42Q143.65 80.02 143.65 80.64Q143.68 81.28 143.65 81.94Q143.65 82.6 143.54 83.27Q143.89 83.41 144.56 83.41Q145.26 83.41 146.06 83.38Q146.9 83.34 147.74 83.34Q148.62 83.31 149.32 83.41Q150.02 83.48 150.44 83.72Q150.89 83.97 150.89 84.5Q150.89 85.02 150.47 85.3Q150.09 85.55 149.39 85.65Q148.69 85.75 147.74 85.75Q146.83 85.72 145.82 85.72Q144.38 85.58 142.49 85.72Q140.6 85.83 138.89 85.86Q137.17 85.86 135.95 85.58Q134.76 85.27 134.69 84.25Q134.48 80.4 134.51 76.44Q134.55 72.49 134.55 68.47Q134.55 68.01 134.55 67.48Q134.55 66.92 134.58 66.44Q134.62 65.91 134.65 65.53Q134.72 65.1 134.83 64.89Q135.07 64.69 135.84 64.58Q136.61 64.44 137.52 64.41Q138.47 64.33 139.34 64.33Q140.22 64.3 140.74 64.3L145.82 64.3Q146.48 64.3 147.32 64.23Q148.16 64.16 148.9 64.23Q149.63 64.27 150.12 64.51Q150.61 64.75 150.61 65.42Q150.61 65.88 150.26 66.08Q149.95 66.3 149.46 66.36Q149 66.44 148.48 66.44Q147.95 66.4 147.6 66.4ZM161.78 65.45Q161.85 68.22 161.81 70.22Q161.81 72.21 161.74 73.72Q161.71 75.22 161.64 76.38Q161.57 77.5 161.53 78.62Q161.53 79.7 161.57 80.89Q161.6 82.05 161.78 83.59Q162.34 83.59 163 83.62Q163.7 83.62 164.23 83.8Q164.79 83.94 165.07 84.25Q165.35 84.56 165.14 85.13Q165.03 85.44 164.58 85.58Q164.12 85.72 163.53 85.75Q162.97 85.79 162.37 85.75Q161.78 85.72 161.43 85.72Q159.43 85.72 158.07 85.79Q156.7 85.86 155.79 85.9Q154.92 85.93 154.39 85.86Q153.87 85.75 153.59 85.47Q153.31 85.16 153.13 84.56Q152.99 83.97 152.85 82.99Q152.85 82.6 152.85 81.69Q152.85 80.78 152.82 79.59Q152.82 78.37 152.78 77Q152.78 75.6 152.75 74.31Q152.71 73.02 152.64 71.89Q152.61 70.78 152.54 70.11Q152.54 68.92 152.57 67.66Q152.61 66.4 152.85 65.45Q152.92 64.93 153.59 64.58Q154.25 64.19 155.2 64.02Q156.18 63.84 157.3 63.84Q158.42 63.84 159.36 64.02Q160.34 64.19 161.01 64.58Q161.67 64.93 161.78 65.45ZM185.89 73.36Q186.56 73.4 186.94 73.92Q187.36 74.41 187.4 75.01Q187.43 75.57 187.05 76.06Q186.66 76.52 185.72 76.44Q185.23 76.41 184.88 76.44Q184.53 76.44 184.21 76.48Q183.9 76.48 183.55 76.52Q183.23 76.52 182.81 76.52Q182.81 76.97 182.78 77.32Q182.78 77.67 182.78 78.06Q182.78 78.41 182.74 78.83Q182.74 79.25 182.74 79.77Q182.64 80.47 182.08 80.85Q181.55 81.24 180.92 81.28Q180.29 81.31 179.73 81Q179.21 80.64 179.1 79.94Q179.1 79.03 179.07 78.41Q179.07 77.74 179.07 76.69Q178.16 76.69 177.49 76.72Q176.86 76.72 175.95 76.72Q175.32 76.72 174.97 76.23Q174.62 75.71 174.55 75.08Q174.48 74.45 174.73 73.96Q174.97 73.44 175.6 73.44Q176.72 73.26 177.49 73.19Q178.3 73.09 179.21 73.09Q179.21 72.56 179.14 72.14Q179.07 71.72 179.03 71.34Q179 70.95 179.03 70.56Q179.07 70.18 179.24 69.72Q179.35 69.2 179.84 68.92Q180.36 68.64 180.96 68.64Q181.55 68.64 182.01 68.95Q182.5 69.23 182.5 69.86Q182.67 70.78 182.74 71.58Q182.81 72.38 182.81 73.3Q183.69 73.3 184.28 73.26Q184.91 73.22 185.89 73.36ZM211.13 78.44Q211.69 77.14 212.28 75.36Q212.91 73.58 213.58 71.65Q214.24 69.69 214.87 67.77Q215.54 65.81 216.17 64.19Q216.34 63.74 216.48 63.25Q216.62 62.76 216.83 62.41Q217.04 62.02 217.43 61.85Q217.81 61.67 218.51 61.81Q218.93 62.02 219.04 62.38Q219.14 62.72 219.07 63.11Q219 63.46 218.83 63.84Q218.69 64.19 218.58 64.44Q217.71 66.68 216.97 68.85Q216.27 70.98 215.57 73.12Q214.91 75.22 214.17 77.35Q213.44 79.45 212.53 81.63Q212.25 82.15 211.97 82.81Q211.69 83.44 211.34 84.04Q210.99 84.63 210.53 85.09Q210.08 85.55 209.52 85.72Q209.27 85.86 208.71 85.93Q208.19 85.97 207.56 85.97Q206.93 85.97 206.3 85.9Q205.7 85.83 205.35 85.72Q204.76 85.55 204.27 85.09Q203.81 84.6 203.43 83.97Q203.08 83.34 202.8 82.64Q202.55 81.94 202.34 81.28Q201.85 79.77 201.47 78.37Q201.12 76.97 200.77 75.57Q200.42 74.17 200.03 72.73Q199.65 71.27 199.12 69.66Q198.95 69.16 198.67 68.25Q198.42 67.31 198.18 66.3Q197.97 65.25 197.86 64.27Q197.79 63.25 198.04 62.58Q198.21 62.09 198.63 61.85Q199.05 61.6 199.61 61.5Q200.17 61.39 200.8 61.39Q201.47 61.39 202.1 61.39Q202.31 61.39 203.11 61.36Q203.92 61.33 204.83 61.39Q205.74 61.46 206.51 61.74Q207.28 62.02 207.45 62.66Q207.87 64.33 208.26 66.3Q208.64 68.22 208.99 70.28Q209.34 72.31 209.62 74.38Q209.94 76.41 210.18 78.27Q210.25 78.79 210.39 78.93Q210.53 79.07 210.67 79Q210.85 78.93 210.95 78.75Q211.09 78.58 211.13 78.44ZM228.42 64.79Q228.8 65.84 228.84 67.52Q228.87 69.2 228.84 71.13Q228.8 73.05 228.8 75.01Q228.8 76.97 229.08 78.55Q229.36 80.12 230.06 81.13Q230.76 82.12 232.16 82.12Q233.28 81.97 233.95 80.92Q234.65 79.84 235 78.34Q235.35 76.8 235.45 74.97Q235.56 73.12 235.52 71.44Q235.52 69.72 235.45 68.36Q235.38 66.96 235.38 66.3Q235.38 65.73 235.49 65.28Q235.56 64.89 235.7 64.58Q235.87 64.27 236.19 64.27Q236.82 64.27 237.17 64.37Q237.52 64.47 237.69 64.72Q237.87 64.97 237.9 65.42Q237.94 65.88 237.94 66.54L237.94 72.07Q237.94 73.68 237.87 75.01Q237.8 76.31 237.62 77.46Q237.45 78.58 237.1 79.59Q236.75 80.61 236.19 81.59Q235.77 82.47 235.1 83.27Q234.47 84.08 233.49 84.67Q232.55 85.27 231.29 85.55Q230.03 85.79 228.42 85.58Q226.28 85.37 224.85 84.5Q223.45 83.59 222.54 82.22Q221.66 80.82 221.21 79.07Q220.75 77.32 220.54 75.43Q220.37 73.54 220.33 71.65Q220.33 69.72 220.33 68.01L220.33 65.73Q220.33 65.21 220.58 64.86Q220.82 64.51 221.17 64.33Q221.56 64.13 222.01 64.05Q222.5 63.95 222.92 63.95L225.2 63.95Q225.76 63.95 226.28 63.98Q226.81 63.98 227.26 64.05Q227.72 64.13 228 64.3Q228.31 64.47 228.42 64.79ZM253.16 66.4L249.35 66.4Q249.21 67.17 249.17 68.39Q249.17 69.58 249.21 70.91Q249.24 72.25 249.28 73.58Q249.35 74.87 249.35 75.85Q249.77 75.99 250.12 76.03Q250.47 76.03 250.82 76.03Q251.17 75.99 251.52 75.95Q251.9 75.92 252.32 75.92Q253.09 75.95 253.58 75.99Q254.11 75.99 254.42 76.13Q254.74 76.23 254.88 76.55Q255.02 76.83 255.02 77.39Q255.02 77.81 254.32 77.95Q253.65 78.09 252.74 78.13Q251.83 78.13 250.85 78.13Q249.91 78.09 249.35 78.19Q249.21 78.79 249.21 79.42Q249.21 80.02 249.21 80.64Q249.24 81.28 249.21 81.94Q249.21 82.6 249.1 83.27Q249.45 83.41 250.12 83.41Q250.82 83.41 251.62 83.38Q252.46 83.34 253.3 83.34Q254.18 83.31 254.88 83.41Q255.58 83.48 256 83.72Q256.45 83.97 256.45 84.5Q256.45 85.02 256.03 85.3Q255.65 85.55 254.95 85.65Q254.25 85.75 253.3 85.75Q252.39 85.72 251.38 85.72Q249.94 85.58 248.05 85.72Q246.16 85.83 244.45 85.86Q242.73 85.86 241.51 85.58Q240.32 85.27 240.25 84.25Q240.04 80.4 240.07 76.44Q240.11 72.49 240.11 68.47Q240.11 68.01 240.11 67.48Q240.11 66.92 240.14 66.44Q240.18 65.91 240.21 65.53Q240.28 65.1 240.39 64.89Q240.63 64.69 241.4 64.58Q242.17 64.44 243.08 64.41Q244.03 64.33 244.9 64.33Q245.78 64.3 246.3 64.3L251.38 64.3Q252.04 64.3 252.88 64.23Q253.72 64.16 254.46 64.23Q255.19 64.27 255.68 64.51Q256.17 64.75 256.17 65.42Q256.17 65.88 255.82 66.08Q255.51 66.3 255.02 66.36Q254.56 66.44 254.04 66.44Q253.51 66.4 253.16 66.4ZM18.68 106.3Q18.68 108.89 18.82 111.23Q19 113.55 19 116.1Q19.97 116.2 21.2 116.17Q22.42 116.13 23.3 116.41Q23.55 116.48 23.65 116.83Q23.79 117.15 23.79 117.5Q23.79 118.16 23.23 118.41Q22.7 118.66 21.94 118.72Q21.2 118.76 20.36 118.76Q19.56 118.72 19 118.83Q19 119.36 19.03 120.33Q19.1 121.31 19.13 122.4Q19.17 123.45 19.17 124.43Q19.2 125.41 19.13 125.94Q19.13 126.08 19.17 126.39Q19.2 126.7 19.1 127.06Q19.03 127.37 18.78 127.65Q18.54 127.89 17.94 127.93Q15.95 128.07 14.34 128.03Q12.73 127.97 11.05 127.89Q10.66 127.89 10.42 127.72Q10.21 127.55 10.03 127.3Q9.89 127.06 9.82 126.81Q9.79 126.53 9.79 126.32Q9.79 125.44 9.75 123.8Q9.75 122.12 9.72 120.09Q9.69 118.03 9.65 115.78Q9.62 113.55 9.58 111.58Q9.54 109.59 9.51 108.05Q9.51 106.47 9.51 105.78Q9.51 105.14 10.03 104.72Q10.56 104.27 11.4 104.03Q12.24 103.78 13.29 103.67Q14.38 103.53 15.5 103.5Q16.65 103.47 17.77 103.47Q18.89 103.47 19.76 103.43Q20.32 103.43 21.06 103.43Q21.83 103.39 22.6 103.43Q23.41 103.43 24.1 103.5Q24.8 103.53 25.26 103.6Q25.5 103.64 25.61 103.85Q25.75 104.03 25.78 104.27Q25.85 104.52 25.85 104.8Q25.85 105.08 25.82 105.28Q25.78 105.63 25.33 105.84Q24.91 106.02 24.25 106.13Q23.61 106.19 22.81 106.19Q22 106.19 21.23 106.19Q20.47 106.19 19.76 106.23Q19.1 106.23 18.68 106.3ZM35.52 106.79Q35.9 107.84 35.94 109.52Q35.97 111.2 35.94 113.13Q35.9 115.05 35.9 117.01Q35.9 118.97 36.18 120.55Q36.46 122.12 37.16 123.14Q37.86 124.11 39.26 124.11Q40.38 123.97 41.05 122.92Q41.75 121.84 42.1 120.33Q42.45 118.8 42.55 116.97Q42.66 115.12 42.62 113.44Q42.62 111.72 42.55 110.36Q42.48 108.96 42.48 108.3Q42.48 107.73 42.59 107.28Q42.66 106.89 42.8 106.58Q42.97 106.27 43.29 106.27Q43.92 106.27 44.27 106.37Q44.62 106.47 44.79 106.72Q44.97 106.97 45 107.42Q45.04 107.88 45.04 108.54L45.04 114.07Q45.04 115.68 44.97 117.01Q44.9 118.31 44.72 119.46Q44.55 120.58 44.2 121.59Q43.84 122.61 43.29 123.59Q42.87 124.47 42.2 125.27Q41.57 126.08 40.59 126.67Q39.65 127.27 38.39 127.55Q37.13 127.79 35.52 127.58Q33.38 127.37 31.95 126.5Q30.55 125.58 29.64 124.22Q28.76 122.82 28.31 121.07Q27.85 119.32 27.64 117.43Q27.47 115.54 27.43 113.65Q27.43 111.72 27.43 110.01L27.43 107.73Q27.43 107.21 27.68 106.86Q27.92 106.51 28.27 106.33Q28.66 106.13 29.11 106.05Q29.6 105.95 30.02 105.95L32.3 105.95Q32.86 105.95 33.38 105.98Q33.91 105.98 34.36 106.05Q34.82 106.13 35.1 106.3Q35.41 106.47 35.52 106.79ZM55.88 107.45Q55.95 110.22 55.92 112.22Q55.92 114.21 55.85 115.72Q55.81 117.22 55.75 118.38Q55.67 119.5 55.64 120.61Q55.64 121.7 55.67 122.89Q55.71 124.05 55.88 125.58Q56.44 125.58 57.11 125.62Q57.81 125.62 58.33 125.8Q58.89 125.94 59.17 126.25Q59.45 126.56 59.25 127.13Q59.14 127.44 58.69 127.58Q58.23 127.72 57.63 127.75Q57.08 127.79 56.48 127.75Q55.88 127.72 55.53 127.72Q53.54 127.72 52.17 127.79Q50.81 127.86 49.9 127.89Q49.02 127.93 48.5 127.86Q47.97 127.75 47.69 127.47Q47.41 127.16 47.24 126.56Q47.1 125.97 46.96 124.99Q46.96 124.61 46.96 123.69Q46.96 122.78 46.92 121.59Q46.92 120.37 46.89 119Q46.89 117.61 46.86 116.31Q46.82 115.02 46.75 113.89Q46.72 112.78 46.64 112.11Q46.64 110.92 46.68 109.66Q46.72 108.4 46.96 107.45Q47.03 106.93 47.69 106.58Q48.36 106.19 49.3 106.02Q50.28 105.84 51.41 105.84Q52.52 105.84 53.47 106.02Q54.45 106.19 55.11 106.58Q55.78 106.93 55.88 107.45ZM70.31 107.45Q70.38 110.22 70.34 112.22Q70.34 114.21 70.27 115.72Q70.23 117.22 70.16 118.38Q70.09 119.5 70.06 120.61Q70.06 121.7 70.09 122.89Q70.13 124.05 70.31 125.58Q70.86 125.58 71.53 125.62Q72.23 125.62 72.75 125.8Q73.31 125.94 73.59 126.25Q73.88 126.56 73.67 127.13Q73.56 127.44 73.11 127.58Q72.65 127.72 72.06 127.75Q71.5 127.79 70.9 127.75Q70.31 127.72 69.95 127.72Q67.96 127.72 66.59 127.79Q65.23 127.86 64.32 127.89Q63.44 127.93 62.92 127.86Q62.39 127.75 62.11 127.47Q61.83 127.16 61.66 126.56Q61.52 125.97 61.38 124.99Q61.38 124.61 61.38 123.69Q61.38 122.78 61.34 121.59Q61.34 120.37 61.31 119Q61.31 117.61 61.28 116.31Q61.24 115.02 61.17 113.89Q61.14 112.78 61.06 112.11Q61.06 110.92 61.1 109.66Q61.14 108.4 61.38 107.45Q61.45 106.93 62.11 106.58Q62.78 106.19 63.72 106.02Q64.7 105.84 65.83 105.84Q66.94 105.84 67.89 106.02Q68.87 106.19 69.53 106.58Q70.2 106.93 70.31 107.45ZM96.45 107.17Q96.91 107.35 97.33 107.66Q97.75 107.94 97.99 108.3Q98.27 108.61 98.34 108.96Q98.44 109.28 98.27 109.48Q97.85 109.97 97.22 109.87Q96.63 109.73 96.14 109.48Q96.03 109.48 95.54 109.24Q95.05 108.96 94.35 108.75Q93.69 108.5 92.91 108.47Q92.18 108.44 91.55 108.89Q90.89 109.34 90.64 110.01Q90.4 110.67 90.43 111.34Q90.5 112 90.78 112.6Q91.09 113.19 91.55 113.51Q92.95 114.84 94.11 115.72Q95.26 116.59 96.1 117.33Q96.97 118.06 97.5 118.86Q98.06 119.67 98.27 120.89Q98.69 123 98.03 124.43Q97.4 125.83 96.1 126.64Q94.81 127.44 93.13 127.72Q91.44 128 89.84 127.86Q88.22 127.69 86.9 127.16Q85.6 126.6 85.04 125.8Q85 125.72 84.8 125.48Q84.62 125.2 84.45 124.85Q84.31 124.5 84.23 124.15Q84.2 123.77 84.48 123.48Q84.83 123.14 85.11 123.1Q85.39 123.06 85.6 123.2Q85.84 123.34 86.02 123.63Q86.19 123.87 86.3 124.11Q86.72 124.75 87.63 125.13Q88.54 125.52 89.48 125.48Q90.47 125.44 91.23 124.92Q92.04 124.39 92.18 123.2Q92.18 121.88 91.59 121.17Q90.99 120.47 90.12 120.02Q89.28 119.53 88.3 119.11Q87.35 118.69 86.58 117.95Q85.6 117.19 84.9 116.48Q84.2 115.75 83.78 114.88Q83.36 114 83.22 112.88Q83.11 111.72 83.33 110.11Q83.47 108.78 84.8 107.81Q86.13 106.79 88.05 106.33Q89.97 105.88 92.22 106.05Q94.49 106.19 96.45 107.17ZM112.9 108.75Q112.83 108.85 112.8 109.41Q112.76 109.94 112.76 110.78Q112.76 111.62 112.76 112.63Q112.8 113.65 112.83 114.7Q112.87 115.72 112.87 116.69Q112.9 117.64 112.9 118.34L112.9 125.9Q112.9 126.36 112.83 126.92Q112.76 127.47 112.34 127.65Q112.17 127.72 111.64 127.75Q111.15 127.79 110.45 127.83Q109.78 127.83 109.02 127.83Q108.25 127.83 107.55 127.83Q106.88 127.79 106.39 127.79Q105.9 127.75 105.76 127.75Q105.06 127.75 104.68 127.58Q104.29 127.41 104.29 126.6L104.29 121.07L104.29 108.92Q104.29 108.78 103.77 108.75Q103.28 108.72 102.61 108.75Q101.98 108.75 101.39 108.78Q100.83 108.78 100.72 108.75Q100.19 108.72 99.92 108.64Q99.67 108.54 99.56 108.36Q99.5 108.19 99.5 107.88Q99.53 107.53 99.53 107Q99.74 106.69 100.02 106.58Q100.3 106.44 100.58 106.44Q100.9 106.41 101.21 106.44Q101.53 106.47 101.84 106.47L116.09 106.47Q116.65 106.47 116.96 106.51Q117.31 106.51 117.48 106.61Q117.7 106.72 117.77 106.97Q117.84 107.21 117.84 107.63Q117.84 108.02 117.63 108.22Q117.45 108.44 117.17 108.58Q116.93 108.68 116.61 108.72Q116.33 108.75 116.09 108.75Q115.25 108.75 114.41 108.64Q113.56 108.54 112.9 108.75ZM133.59 122.96Q133.59 123.48 133.59 124.15Q133.59 124.78 133.55 125.41Q133.55 126.04 133.44 126.64Q133.38 127.19 133.17 127.61Q133.03 127.89 132.05 128.07Q131.06 128.21 129.91 128.21Q128.79 128.21 127.81 128.07Q126.87 127.89 126.73 127.55Q126.52 126.92 126.48 125.9Q126.48 124.85 126.48 123.73Q126.52 122.58 126.52 121.53Q126.55 120.47 126.45 119.81Q125.64 119.7 124.7 119.7Q123.78 119.67 122.81 119.67Q121.83 119.67 120.84 119.67Q119.87 119.64 118.96 119.53Q118.75 120.51 118.75 121.59Q118.75 122.64 118.78 123.69Q118.85 124.75 118.85 125.69Q118.89 126.64 118.78 127.3Q118.71 127.75 118.36 127.93Q118.05 128.07 117.66 128.03Q117.31 127.97 117.03 127.69Q116.75 127.41 116.75 126.98Q116.75 125.8 116.72 124.64Q116.68 123.48 116.75 121.73Q116.82 119.74 116.86 117.81Q116.93 115.86 117.17 114.07Q117.42 112.28 117.97 110.78Q118.53 109.24 119.62 108.08Q120.32 107.28 121.44 106.65Q122.56 106.02 124.14 106.02Q126.34 106.02 127.92 106.72Q129.53 107.42 130.58 108.64Q131.66 109.87 132.29 111.52Q132.92 113.13 133.2 115.02Q133.52 116.91 133.59 118.94Q133.66 120.97 133.59 122.96ZM118.99 117.57L126.8 117.57Q126.8 115.16 126.52 113.47Q126.24 111.8 125.68 110.75Q125.15 109.69 124.38 109.24Q123.61 108.75 122.63 108.75Q121.97 108.75 121.44 109.24Q120.92 109.73 120.5 110.53Q120.11 111.34 119.83 112.32Q119.55 113.3 119.34 114.28Q119.17 115.26 119.06 116.13Q118.99 117.01 118.99 117.57ZM144.26 109.28Q144.26 113.44 144.37 117.61Q144.47 121.77 144.82 125.52Q144.82 125.62 145.42 125.69Q146.05 125.72 146.85 125.69Q147.69 125.66 148.46 125.52Q149.27 125.38 149.62 125.17Q150.07 124.89 150.56 124.71Q151.05 124.5 151.54 124.71Q151.86 125.09 151.89 125.41Q151.93 125.69 151.78 125.94Q151.65 126.18 151.4 126.39Q151.16 126.56 150.91 126.7Q150.11 127.16 149.06 127.41Q148 127.65 146.89 127.75Q145.77 127.83 144.65 127.75Q143.53 127.69 142.58 127.55Q141.04 127.44 139.68 126.78Q138.34 126.08 137.3 125.03Q136.25 123.97 135.51 122.64Q134.81 121.28 134.6 119.88Q134.36 118.83 134.39 117.57Q134.43 116.28 134.64 115.05Q134.84 113.83 135.16 112.74Q135.51 111.66 135.83 110.99Q136.42 109.8 137.4 108.89Q138.42 107.94 139.68 107.31Q140.94 106.69 142.41 106.37Q143.88 106.05 145.38 106.05Q146.75 106.05 148.15 106.19Q149.55 106.33 150.84 107.21Q151.09 107.38 151.44 107.7Q151.82 107.98 152.1 108.33Q152.38 108.64 152.45 109.03Q152.52 109.38 152.21 109.69Q151.82 109.94 151.5 109.91Q151.23 109.83 150.94 109.66Q150.7 109.45 150.46 109.2Q150.25 108.92 150 108.75Q149.48 108.36 148.5 108.12Q147.55 107.88 146.61 107.91Q145.66 107.91 144.96 108.22Q144.26 108.54 144.26 109.28ZM162.5 106.93Q162.6 107.94 162.6 108.92Q162.64 109.91 162.64 110.95Q162.64 111.97 162.67 113.13Q162.71 114.25 162.81 115.58Q163.02 115.26 163.2 115.02Q163.37 114.77 163.62 114.45Q163.86 114.11 164.21 113.61Q164.59 113.13 165.19 112.36Q165.75 111.58 166.28 110.67Q166.84 109.73 167.36 108.92Q167.89 108.08 168.34 107.45Q168.83 106.83 169.25 106.61Q169.39 106.51 169.6 106.58Q169.81 106.61 170.02 106.72Q170.27 106.83 170.44 106.97Q170.65 107.1 170.75 107.21Q170.75 107.7 170.09 108.89Q169.46 110.08 168.48 111.58Q167.54 113.05 166.38 114.63Q165.26 116.2 164.28 117.43Q164.74 117.95 165.37 118.69Q166 119.42 166.66 120.23Q167.33 121 167.92 121.77Q168.55 122.54 169 123.1Q169.46 123.52 170.09 124.11Q170.75 124.71 171.28 125.34Q171.81 125.94 172.02 126.53Q172.26 127.13 171.81 127.58Q171.28 128 170.9 128Q170.51 128 170.23 127.79Q169.95 127.55 169.71 127.23Q169.5 126.88 169.25 126.67Q168.48 125.86 167.64 124.92Q166.84 123.97 166 123.03Q165.19 122.08 164.35 121.17Q163.55 120.23 162.81 119.42L162.81 126.98Q162.81 127.3 162.5 127.51Q162.18 127.72 161.69 127.83Q161.24 127.93 160.64 127.93Q160.08 127.93 159.56 127.83Q158.75 127.83 157.81 127.93Q156.9 128.03 156.02 128Q155.15 127.93 154.48 127.61Q153.81 127.27 153.61 126.39Q153.71 124.71 153.68 122.72Q153.68 120.69 153.57 118.55Q153.5 116.41 153.4 114.28Q153.33 112.14 153.33 110.25Q153.33 109.48 153.29 108.72Q153.29 107.94 153.4 107.38Q153.5 106.83 153.81 106.55Q154.13 106.23 154.8 106.37Q155.43 106.37 156.72 106.27Q158.02 106.13 159.28 106.09Q160.57 106.05 161.52 106.23Q162.5 106.37 162.5 106.93ZM189.62 106.33Q189.76 108.61 189.76 111.09Q189.76 113.58 189.76 116.1Q189.76 118.58 189.76 121Q189.8 123.38 189.97 125.52Q190 125.94 190.74 126.11Q191.48 126.25 192.38 126.28Q193.3 126.28 194.1 126.22Q194.91 126.14 195.08 126.14Q196.03 126 196.66 125.72Q197.29 125.41 197.74 125.2Q198.19 124.99 198.55 124.99Q198.93 124.95 199.35 125.38Q199.74 125.66 199.77 125.97Q199.84 126.28 199.67 126.6Q199.53 126.92 199.21 127.19Q198.93 127.44 198.62 127.65Q197.56 128.28 196.27 128.56Q195.01 128.84 193.68 128.91Q192.38 128.94 191.13 128.84Q189.87 128.74 188.78 128.59Q187.03 128.31 185.46 127.41Q183.92 126.46 182.69 125.17Q181.47 123.87 180.63 122.3Q179.82 120.72 179.54 119.11Q179.3 117.92 179.33 116.45Q179.4 114.98 179.61 113.55Q179.86 112.11 180.24 110.85Q180.63 109.56 181.01 108.75Q181.68 107.42 182.83 106.37Q183.99 105.32 185.46 104.58Q186.93 103.85 188.61 103.47Q190.29 103.08 192.04 103.08Q192.84 103.08 193.61 103.15Q194.38 103.19 195.19 103.39Q196.03 103.57 196.9 103.92Q197.78 104.27 198.79 104.86Q199 105 199.31 105.28Q199.63 105.53 199.88 105.88Q200.12 106.23 200.16 106.61Q200.23 107 199.98 107.35Q199.7 107.73 199.38 107.77Q199.07 107.81 198.72 107.66Q198.41 107.49 198.02 107.25Q197.67 106.97 197.29 106.72Q196.48 106.23 195.5 105.91Q194.56 105.56 193.47 105.56Q193.37 105.56 192.74 105.6Q192.11 105.6 191.41 105.7Q190.74 105.78 190.18 105.95Q189.62 106.09 189.62 106.33ZM210.59 106.55Q213.11 106.41 215 106.72Q216.88 107 218.25 107.84Q219.65 108.64 220.59 109.97Q221.54 111.31 222.13 113.23Q222.38 114.03 222.49 114.73Q222.63 115.4 222.63 116.2Q222.66 117.01 222.59 118.06Q222.56 119.08 222.42 120.55Q222.17 122.44 221.12 124.05Q220.07 125.66 218.46 126.78Q216.85 127.86 214.82 128.35Q212.79 128.84 210.59 128.49Q208.38 128.18 206.53 127.02Q204.71 125.86 203.44 124.05Q202.68 123.03 202.25 121.63Q201.84 120.19 201.69 118.69Q201.59 117.15 201.77 115.64Q201.98 114.11 202.47 112.84Q202.99 111.69 203.83 110.6Q204.67 109.52 205.72 108.68Q206.77 107.81 208 107.25Q209.25 106.65 210.59 106.55ZM217.41 110.05Q216.88 109.59 215.94 109.2Q215.03 108.82 214.12 108.68Q213.21 108.5 212.51 108.64Q211.81 108.75 211.67 109.31Q211.53 110.11 211.53 111.31Q211.53 112.46 211.56 113.79Q211.63 115.12 211.67 116.56Q211.74 117.95 211.71 119.22Q211.67 119.91 211.63 120.89Q211.6 121.88 211.71 122.82Q211.84 123.73 212.19 124.47Q212.55 125.17 213.31 125.31Q215.03 125.66 216.32 125.03Q217.66 124.36 218.53 123.06Q219.41 121.73 219.79 119.98Q220.21 118.23 220.11 116.45Q220 114.63 219.34 112.95Q218.67 111.23 217.41 110.05ZM231.2 106.79Q231.59 107.84 231.62 109.52Q231.66 111.2 231.62 113.13Q231.59 115.05 231.59 117.01Q231.59 118.97 231.87 120.55Q232.15 122.12 232.85 123.14Q233.55 124.11 234.94 124.11Q236.06 123.97 236.73 122.92Q237.43 121.84 237.78 120.33Q238.13 118.8 238.24 116.97Q238.34 115.12 238.31 113.44Q238.31 111.72 238.24 110.36Q238.17 108.96 238.17 108.3Q238.17 107.73 238.27 107.28Q238.34 106.89 238.48 106.58Q238.66 106.27 238.97 106.27Q239.6 106.27 239.95 106.37Q240.3 106.47 240.48 106.72Q240.65 106.97 240.69 107.42Q240.72 107.88 240.72 108.54L240.72 114.07Q240.72 115.68 240.65 117.01Q240.58 118.31 240.41 119.46Q240.23 120.58 239.88 121.59Q239.53 122.61 238.97 123.59Q238.55 124.47 237.88 125.27Q237.25 126.08 236.28 126.67Q235.33 127.27 234.07 127.55Q232.81 127.79 231.2 127.58Q229.06 127.37 227.63 126.5Q226.23 125.58 225.32 124.22Q224.44 122.82 223.99 121.07Q223.54 119.32 223.32 117.43Q223.15 115.54 223.12 113.65Q223.12 111.72 223.12 110.01L223.12 107.73Q223.12 107.21 223.36 106.86Q223.61 106.51 223.96 106.33Q224.34 106.13 224.8 106.05Q225.29 105.95 225.71 105.95L227.98 105.95Q228.54 105.95 229.06 105.98Q229.59 105.98 230.05 106.05Q230.5 106.13 230.78 106.3Q231.1 106.47 231.2 106.79ZM252.13 120.69Q252.69 121.45 253.6 122.3Q254.51 123.14 255.39 123.91Q256.26 124.67 256.89 125.31Q257.52 125.94 257.49 126.28Q257.38 127.09 257.06 127.37Q256.75 127.65 256.26 127.58Q255.81 127.47 255.21 127.06Q254.62 126.64 253.92 126Q252.97 125.09 251.96 124.11Q250.94 123.1 250.03 122.44Q249.93 122.96 250 123.69Q250.06 124.43 250.1 125.17Q250.14 125.86 250.03 126.42Q249.96 126.98 249.5 127.16Q249.19 127.51 248.31 127.69Q247.48 127.86 246.46 127.89Q245.48 127.89 244.5 127.79Q243.56 127.69 243 127.44Q242.33 127.23 242.23 126.6Q242.12 125.97 242.12 125.09Q242.19 123.83 242.12 122.05Q242.09 120.23 241.98 118.27Q241.91 116.28 241.88 114.28Q241.84 112.25 241.91 110.6Q241.98 108.96 242.23 107.84Q242.47 106.72 243 106.47Q243.66 106.05 244.99 105.91Q246.36 105.78 247.86 105.84Q249.4 105.88 250.8 106.09Q252.24 106.27 253 106.47Q254.13 106.83 254.97 107.53Q255.84 108.19 256.4 109.06Q257 109.91 257.31 110.88Q257.63 111.83 257.73 112.7Q257.73 113.37 257.7 114.07Q257.7 114.77 257.59 115.44Q257.52 116.1 257.35 116.69Q257.17 117.25 256.82 117.67Q255.98 118.83 254.79 119.42Q253.64 120.02 252.13 120.69ZM249.75 118.86Q250.63 119.11 251.68 118.83Q252.73 118.55 253.6 117.99Q254.51 117.43 255.11 116.66Q255.7 115.89 255.7 115.12Q255.81 113.33 255.35 111.97Q254.93 110.57 254.13 109.63Q253.32 108.68 252.2 108.22Q251.12 107.73 249.89 107.73Q249.89 109.06 249.86 110.64Q249.86 112.22 249.82 113.79Q249.79 115.33 249.75 116.69Q249.75 118.03 249.75 118.86ZM271.94 107.17Q272.4 107.35 272.82 107.66Q273.24 107.94 273.48 108.3Q273.76 108.61 273.83 108.96Q273.94 109.28 273.76 109.48Q273.34 109.97 272.71 109.87Q272.12 109.73 271.63 109.48Q271.52 109.48 271.03 109.24Q270.54 108.96 269.84 108.75Q269.18 108.5 268.41 108.47Q267.67 108.44 267.04 108.89Q266.38 109.34 266.13 110.01Q265.88 110.67 265.92 111.34Q265.99 112 266.27 112.6Q266.59 113.19 267.04 113.51Q268.44 114.84 269.6 115.72Q270.75 116.59 271.59 117.33Q272.47 118.06 272.99 118.86Q273.55 119.67 273.76 120.89Q274.18 123 273.52 124.43Q272.88 125.83 271.59 126.64Q270.3 127.44 268.62 127.72Q266.94 128 265.33 127.86Q263.72 127.69 262.38 127.16Q261.09 126.6 260.53 125.8Q260.5 125.72 260.29 125.48Q260.11 125.2 259.94 124.85Q259.8 124.5 259.73 124.15Q259.69 123.77 259.97 123.48Q260.32 123.14 260.6 123.1Q260.88 123.06 261.09 123.2Q261.34 123.34 261.51 123.63Q261.69 123.87 261.79 124.11Q262.21 124.75 263.12 125.13Q264.03 125.52 264.98 125.48Q265.96 125.44 266.73 124.92Q267.53 124.39 267.67 123.2Q267.67 121.88 267.08 121.17Q266.48 120.47 265.61 120.02Q264.77 119.53 263.79 119.11Q262.84 118.69 262.07 117.95Q261.09 117.19 260.39 116.48Q259.69 115.75 259.27 114.88Q258.85 114 258.71 112.88Q258.61 111.72 258.82 110.11Q258.96 108.78 260.29 107.81Q261.62 106.79 263.54 106.33Q265.47 105.88 267.71 106.05Q269.98 106.19 271.94 107.17ZM288.53 108.4L284.72 108.4Q284.58 109.17 284.54 110.39Q284.54 111.58 284.58 112.91Q284.61 114.25 284.65 115.58Q284.72 116.87 284.72 117.85Q285.13 117.99 285.49 118.03Q285.84 118.03 286.19 118.03Q286.54 117.99 286.88 117.95Q287.27 117.92 287.69 117.92Q288.46 117.95 288.95 117.99Q289.48 117.99 289.79 118.13Q290.11 118.23 290.25 118.55Q290.38 118.83 290.38 119.39Q290.38 119.81 289.69 119.95Q289.02 120.09 288.11 120.13Q287.2 120.13 286.22 120.13Q285.28 120.09 284.72 120.19Q284.58 120.79 284.58 121.42Q284.58 122.02 284.58 122.64Q284.61 123.28 284.58 123.94Q284.58 124.61 284.47 125.27Q284.82 125.41 285.49 125.41Q286.19 125.41 286.99 125.38Q287.83 125.34 288.67 125.34Q289.55 125.31 290.25 125.41Q290.95 125.48 291.37 125.72Q291.82 125.97 291.82 126.5Q291.82 127.02 291.4 127.3Q291.02 127.55 290.32 127.65Q289.62 127.75 288.67 127.75Q287.76 127.72 286.75 127.72Q285.31 127.58 283.42 127.72Q281.53 127.83 279.82 127.86Q278.1 127.86 276.88 127.58Q275.69 127.27 275.62 126.25Q275.41 122.4 275.44 118.44Q275.48 114.49 275.48 110.47Q275.48 110.01 275.48 109.48Q275.48 108.92 275.51 108.44Q275.55 107.91 275.58 107.53Q275.65 107.1 275.75 106.89Q276 106.69 276.77 106.58Q277.54 106.44 278.45 106.41Q279.4 106.33 280.27 106.33Q281.15 106.3 281.67 106.3L286.75 106.3Q287.41 106.3 288.25 106.23Q289.09 106.16 289.83 106.23Q290.56 106.27 291.05 106.51Q291.54 106.75 291.54 107.42Q291.54 107.88 291.19 108.08Q290.88 108.3 290.38 108.36Q289.93 108.44 289.41 108.44Q288.88 108.4 288.53 108.4Z" />
</svg>